HIERARCHY
ROOT Hips
{
	OFFSET -3.958830 18.904000 13.208200
	CHANNELS 6 Xposition Yposition Zposition Zrotation Yrotation Xrotation 
	JOINT LHipJoint
	{
		OFFSET 0.000000 0.000000 0.000000
		CHANNELS 3 Zrotation Yrotation Xrotation
		JOINT LeftUpLeg
		{
			OFFSET 1.800000 -1.400000 0.085000
			CHANNELS 3 Zrotation Yrotation Xrotation
			JOINT LeftLeg
			{
				OFFSET 2.215000 -6.000000 0.000000
				CHANNELS 3 Zrotation Yrotation Xrotation
				JOINT LeftFoot
				{
					OFFSET 2.500000 -6.900000 0.000000
					CHANNELS 3 Zrotation Yrotation Xrotation
					JOINT LeftToeBase
					{
						OFFSET 0.200000 -0.500000 1.950000
						CHANNELS 3 Zrotation Yrotation Xrotation
						End Site
						{
							OFFSET 0.000000 0.000000 0.000000
						}
					}
				}
			}
		}
	}
	JOINT RHipJoint
	{
		OFFSET 0.000000 0.000000 0.000000
		CHANNELS 3 Zrotation Yrotation Xrotation
		JOINT RightUpLeg
		{
			OFFSET -1.800000 -1.400000 0.085000
			CHANNELS 3 Zrotation Yrotation Xrotation
			JOINT RightLeg
			{
				OFFSET -2.215000 -6.000000 0.000000
				CHANNELS 3 Zrotation Yrotation Xrotation
				JOINT RightFoot
				{
					OFFSET -2.500000 -6.900000 0.000000
					CHANNELS 3 Zrotation Yrotation Xrotation
					JOINT RightToeBase
					{
						OFFSET -0.200000 -0.500000 1.950000
						CHANNELS 3 Zrotation Yrotation Xrotation
						End Site
						{
							OFFSET 0.000000 0.000000 0.000000
						}
					}
				}
			}
		}
	}
	JOINT LowerBack
	{
		OFFSET 0.000000 0.000000 0.000000
		CHANNELS 3 Zrotation Yrotation Xrotation
		JOINT Spine
		{
			OFFSET -0.087000 1.940000 -0.288900
			CHANNELS 3 Zrotation Yrotation Xrotation
			JOINT Spine1
			{
				OFFSET 0.000000 1.950000 0.060000
				CHANNELS 3 Zrotation Yrotation Xrotation
				JOINT Neck
				{
					OFFSET 0.000000 0.000000 0.000000
					CHANNELS 3 Zrotation Yrotation Xrotation
					JOINT Neck1
					{
						OFFSET 0.000000 1.600000 0.340000
						CHANNELS 3 Zrotation Yrotation Xrotation
						JOINT Head
						{
							OFFSET 0.000000 1.667000 -0.240000
							CHANNELS 3 Zrotation Yrotation Xrotation
							End Site
							{
								OFFSET 0.000000 0.000000 0.000000
							}
						}
					}
				}
				JOINT LeftShoulder
				{
					OFFSET 0.000000 0.000000 0.000000
					CHANNELS 3 Zrotation Yrotation Xrotation
					JOINT LeftArm
					{
						OFFSET 2.700000 1.550000 -0.730000
						CHANNELS 3 Zrotation Yrotation Xrotation
						JOINT LeftForeArm
						{
							OFFSET 5.450000 0.000000 0.000000
							CHANNELS 3 Zrotation Yrotation Xrotation
							JOINT LeftHand
							{
								OFFSET 3.450000 0.000000 0.000000
								CHANNELS 3 Zrotation Yrotation Xrotation
								JOINT LeftHandIndex1
								{
									OFFSET 0.750000 0.000000 0.000000
									CHANNELS 3 Zrotation Yrotation Xrotation
									End Site
									{
										OFFSET 0.000000 0.000000 0.000000
									}
								}
							}
						}
					}
				}
				JOINT RightShoulder
				{
					OFFSET 0.000000 0.000000 0.000000
					CHANNELS 3 Zrotation Yrotation Xrotation
					JOINT RightArm
					{
						OFFSET -2.700000 1.550000 -0.730000
						CHANNELS 3 Zrotation Yrotation Xrotation
						JOINT RightForeArm
						{
							OFFSET -5.450000 0.000000 0.000000
							CHANNELS 3 Zrotation Yrotation Xrotation
							JOINT RightHand
							{
								OFFSET -3.450000 0.000000 0.000000
								CHANNELS 3 Zrotation Yrotation Xrotation
								JOINT RightHandIndex1
								{
									OFFSET -0.750000 0.000000 0.000000
									CHANNELS 3 Zrotation Yrotation Xrotation
									End Site
									{
										OFFSET 0.000000 0.000000 0.000000
									}
								}
							}
						}
					}
				}
			}
		}
	}
}
MOTION
Frames: 13
Frame Time: 0.016667
2.546580 16.493250 -0.714000 3.699955 26.960818 -4.326866 -15.297118 13.281133 3.115600 12.566518 -11.637981 19.757587 -17.868127 14.440984 27.471262 0.775147 10.626337 1.360709 -0.589600 -0.766340 -0.819250 18.463886 -8.560430 3.125448 14.756517 3.126610 -27.188946 9.240793 -4.129409 8.124238 0.205381 -1.971917 3.754163 -0.348370 1.332140 0.342820 -3.929060 -5.374328 -7.631059 6.093477 -19.719062 15.931370 -13.956970 -17.813209 15.025527 -3.488641 -6.492072 -14.907737 -19.034773 10.360139 35.635052 7.042550 -0.837100 1.759360 22.606711 -5.314603 8.581269 4.519742 -6.365994 -2.336093 39.092495 -25.079130 -9.080294 -4.738861 3.008314 0.435370 0.555720 -0.321460 0.269070 -16.037691 -5.158089 5.744153 24.455504 -14.937678 -9.176881 1.553078 11.187857 -0.483929 1.972834 -0.611830 -0.567790 0.688290 0.743890 0.272980 
2.580520 16.500480 -0.595670 5.067642 22.424363 -5.762991 -15.495409 13.546048 3.384121 11.002902 -10.608209 21.334529 -18.885915 15.171119 28.628600 0.683806 10.973810 1.155771 -0.529040 -0.766830 -0.611430 18.230374 -8.445995 3.243591 13.953832 3.044636 -22.610279 10.266353 -3.934568 4.944962 0.069394 -1.997910 3.689590 -0.339110 1.162650 0.383270 -3.202909 -5.968501 -7.986588 1.306532 -15.468776 18.285384 -10.271004 -13.825224 15.735818 -2.867795 -5.150482 -14.575249 -18.559867 9.553512 40.325460 3.652400 0.933710 -5.411970 21.524375 -5.656011 6.078256 11.120011 -11.348671 -0.521897 25.367680 -21.056235 -4.993577 -4.478677 2.806779 0.681760 0.461790 -0.166530 0.151760 -15.920384 -3.162642 6.706141 25.570968 -17.417636 -9.920438 0.981669 10.820974 -0.338746 1.928204 -0.384663 -0.613830 0.721450 0.780530 0.123440 
2.665150 16.478110 -0.414370 6.743515 18.822130 -6.981386 -15.592589 13.640087 3.555669 8.989687 -10.136870 21.306994 -19.720039 16.411099 32.653148 0.813839 11.532234 0.995833 -0.640530 -0.930450 -0.636400 18.117285 -8.471604 3.277290 13.261953 2.843965 -18.991476 9.318563 -3.790260 3.605723 0.064442 -2.119749 3.689295 -0.434430 1.189520 0.373710 -2.862221 -6.101220 -8.221117 -1.618249 -12.798269 20.488934 -7.470913 -11.620366 15.121182 -2.712664 -4.634201 -15.260900 -18.424766 7.300320 41.792838 1.199840 -0.375320 -4.269230 21.327210 -6.684705 5.756491 13.381360 -10.661136 0.544289 15.446498 -20.298652 -2.679704 -4.334578 2.759098 0.732860 0.478110 -0.183780 0.101430 -15.894564 -0.597606 7.702328 28.384448 -18.336705 -10.736024 -2.261505 10.380697 -0.223014 2.016989 -0.304872 -0.666060 0.754590 0.857690 0.094500 
2.738100 16.475760 -0.234040 8.758548 15.327286 -9.825221 -15.642298 13.724790 3.773195 6.734147 -9.748564 21.378279 -20.264319 17.943870 37.826691 0.864283 12.333492 0.740397 -0.777470 -1.159780 -0.672440 18.040134 -8.618809 3.182304 11.897853 2.166081 -15.209347 8.402840 -4.373776 5.793918 0.046981 -2.386303 3.598548 -0.508420 1.260180 0.340020 -2.666765 -6.114227 -8.377638 -4.710566 -9.859617 26.070228 -4.311206 -9.365562 14.013231 -3.209585 -5.418539 -16.011181 -20.470619 6.558365 40.073222 2.686300 -2.193480 -6.068490 19.872350 -7.504076 5.866110 13.230674 -9.251542 0.757781 11.585730 -20.154080 -2.111548 -4.317329 2.609108 0.880400 0.466730 -0.223660 0.020260 -13.084503 2.881784 8.807732 30.074060 -21.571857 -12.078813 -2.216305 10.979964 -0.121002 1.963050 -0.127771 -0.818810 0.858140 0.999530 0.032250 
2.819060 16.417860 -0.063630 9.128665 13.514430 -9.926537 -15.635503 13.545266 3.828101 7.359571 -11.657928 15.241798 -20.327153 20.391821 47.305828 0.981527 13.425458 0.403924 -0.721950 -1.119380 -0.597900 18.053899 -8.695297 3.154838 12.877978 2.775996 -16.628982 5.323304 -4.557342 11.251691 0.043441 -2.398461 3.570949 -0.425020 1.247560 0.293520 -2.678400 -5.810370 -8.395101 -4.261870 -8.839267 28.594172 -2.753841 -8.290140 13.137500 -3.541199 -5.797554 -14.073301 -18.316036 3.634423 35.255803 1.348620 -3.495310 -11.096840 19.881879 -4.510612 5.389217 8.172796 -10.683542 0.874042 14.081659 -22.090724 -3.098235 -4.303692 2.505372 0.936070 0.438240 -0.225090 0.040460 -12.499718 1.459907 8.083962 31.544882 -16.193011 -10.486060 1.519310 6.527013 -0.159779 2.013144 0.003786 -0.903680 0.954750 0.971170 -0.012600 
2.904250 16.324260 0.080990 9.171946 12.086864 -8.311356 -15.558672 12.918873 4.162255 9.734942 -14.745395 5.437665 -23.143761 25.068648 56.772961 1.444144 14.952952 -0.040260 -0.683620 -1.038830 -0.640690 18.169164 -8.641107 3.114486 14.037996 3.792190 -21.363505 3.107791 -5.042791 19.418320 0.043726 -2.745213 3.443152 -0.379000 1.270830 0.282580 -2.922749 -5.152221 -8.547544 -2.309114 -8.766030 28.672723 -2.387181 -7.838077 11.233104 -4.272462 -5.851926 -13.054004 -16.972577 3.147878 33.300138 1.587210 -3.676750 -8.224380 18.421319 -3.327821 5.126014 4.585304 -9.966530 1.119134 9.936311 -28.134727 -2.568345 -4.200339 2.713255 0.802640 0.480220 -0.284310 0.096130 -9.605668 1.378598 7.340385 34.204475 -12.301172 -9.337163 1.327382 4.092437 -0.169590 2.133978 -0.164386 -0.853410 0.905650 0.915440 0.034090 
2.973020 16.194610 0.216040 9.452802 9.801779 -6.448107 -15.642954 12.278322 4.765608 13.057794 -17.382874 -6.205596 -24.571685 30.414449 66.688437 1.754201 16.795157 -0.605358 -0.662280 -1.037470 -0.598920 18.168611 -8.180726 3.141093 15.211477 5.156331 -25.876593 1.375408 -5.578422 26.860973 -0.055231 -3.320463 3.196036 -0.332090 1.275230 0.288070 -2.744304 -5.177048 -8.846344 -2.241471 -8.458348 29.059680 -0.988809 -7.195199 9.592268 -4.042968 -7.184569 -11.494449 -18.901531 3.694175 31.929977 -0.619540 -3.010680 -10.769770 17.299084 0.882232 4.247212 -2.858530 -9.494835 0.836888 8.815494 -36.208226 -3.385725 -4.214384 2.703428 0.858730 0.487410 -0.287070 0.075000 -8.868220 -0.841271 6.063176 35.137384 -9.694109 -10.600352 10.905721 12.875427 -0.120515 1.812550 -0.312786 -0.910360 0.958230 0.948630 -0.009590 
3.038590 16.050320 0.344420 8.456656 5.697274 -4.432161 -15.660497 11.404371 5.355602 18.567319 -17.696784 -18.266504 -23.032361 35.285772 76.223258 2.237446 18.382015 -1.046229 -0.604480 -0.965980 -0.632240 18.273189 -7.672863 3.367472 16.850810 7.473522 -29.462442 1.865917 -6.490208 32.903277 -0.245428 -4.136838 2.859263 -0.343540 1.218220 0.388740 -2.848929 -4.642353 -9.262017 0.427782 -7.441292 28.460430 -0.949538 -5.092508 8.999569 -3.508094 -7.645413 -11.162736 -20.190645 4.726062 33.956760 0.131820 -2.676200 -8.703280 13.949183 2.735698 3.530772 -7.657160 -6.751508 -0.512183 4.004666 -47.870122 -2.842221 -4.162086 2.968579 0.799810 0.476230 -0.250580 0.098290 -6.757815 -0.654587 6.368498 37.744558 -11.411102 -13.218193 21.958552 24.640450 2.112191 1.659146 -0.750446 -0.770400 0.798600 0.923350 0.032570 
3.124420 15.973920 0.459780 6.469178 0.269772 -4.466613 -15.630630 10.604255 5.874955 24.243228 -15.522582 -27.868937 -18.790992 38.110860 84.845770 2.504645 19.472146 -1.337385 -0.574810 -0.926830 -0.587360 18.436017 -7.372276 3.560938 19.058319 9.298909 -29.029255 1.920387 -7.255983 37.655567 -0.482153 -4.870549 2.598173 -0.363700 1.112550 0.361220 -3.182749 -3.753025 -9.650623 4.441182 -6.511285 31.910554 -1.277880 -2.204645 8.098519 -2.895463 -8.755369 -11.528279 -23.359031 5.440178 37.042127 1.081580 -3.089270 -10.572180 11.902542 4.266184 4.072690 -17.240121 -2.944226 -2.953762 -5.927463 -59.062660 0.398318 -4.021443 3.024402 0.874000 0.369710 -0.166860 0.072400 -6.068146 0.161693 6.453429 42.857471 -9.239262 -14.636611 25.814201 29.616545 3.709660 1.733547 -0.784056 -0.736650 0.787100 0.896570 0.022090 
3.162240 15.912400 0.571070 5.452900 -1.888558 -6.536635 -15.707261 10.144310 6.430139 28.638003 -14.732182 -35.795869 -12.225013 38.278309 95.322861 2.659042 20.312799 -1.561818 -0.568900 -0.932710 -0.557290 18.474398 -7.198068 3.453925 19.701947 9.379761 -27.186676 2.547688 -8.544301 41.343738 -0.697250 -5.594704 2.331290 -0.383850 1.047430 0.355580 -3.191847 -3.477309 -9.926283 4.780939 -6.434118 37.719442 0.342713 -0.859119 7.336807 -3.064333 -9.128425 -12.092089 -25.991355 7.689966 42.484285 2.982640 -3.010150 -11.182910 9.748335 4.145931 4.999106 -25.449475 0.335251 -5.022503 -29.074319 -59.971545 11.777577 -3.913328 3.083213 0.966070 0.292790 -0.099690 0.033190 -3.444425 1.661004 6.187666 46.926568 -6.134994 -15.865455 28.607198 36.307625 5.751916 1.800933 -0.788078 -0.734260 0.780870 0.906720 0.003110 
3.164360 15.853050 0.588960 6.995035 -8.379308 -8.632641 -15.794109 9.694837 6.825152 30.375919 -11.578164 -43.414254 -5.043618 37.405324 103.829158 2.757912 20.715638 -1.679500 -0.569810 -0.937460 -0.501280 18.490577 -7.113665 3.482948 19.136910 10.699218 -25.799605 2.403431 -9.167494 46.493874 -0.930072 -6.519103 1.995467 -0.413230 0.968800 0.376490 -3.234925 -2.820254 -10.191828 1.716042 -3.190307 45.393155 0.259840 2.704982 4.726610 -3.508204 -8.635304 -12.327681 -25.721740 9.804697 47.155431 3.354940 -1.794800 -11.537290 7.513928 2.989194 5.222259 -30.332020 1.806146 -6.050511 -44.904285 -49.843705 16.037982 -3.856448 3.018634 1.007950 0.245290 -0.036740 -0.032650 -0.389392 4.221041 6.105975 53.544413 -2.961367 -17.788004 29.690499 44.174610 7.594861 1.891602 -0.800620 -0.699250 0.728060 0.908490 -0.014680 
3.138460 15.821160 0.619360 11.075427 -12.101532 -11.153459 -15.886109 9.973490 6.791419 27.074824 -9.862265 -50.219781 3.317967 29.998176 107.406023 2.565218 19.722058 -1.504061 -0.490290 -0.834640 -0.451100 18.378079 -7.404104 3.254736 14.676641 10.687898 -23.890994 4.689082 -9.991751 47.376314 -1.049010 -6.865665 1.856163 -0.411480 0.858010 0.420360 -2.975556 -2.766436 -10.103397 -5.639143 2.491769 51.364712 3.268286 5.649296 1.706021 -4.829276 -7.991312 -11.879542 -25.058648 11.753226 52.427657 3.942850 -0.735680 -11.615160 2.647062 1.938924 5.597818 -34.963896 5.831917 -8.027955 -50.804697 -45.360492 16.309250 -3.808275 3.025588 1.013390 0.181490 0.054920 -0.019950 7.143407 6.789459 5.144554 55.445852 -0.429435 -18.567835 25.583378 46.236214 6.547284 1.980511 -0.783326 -0.595610 0.629190 0.834560 -0.001460 
3.152550 15.815730 0.628960 13.476340 -13.920665 -11.890645 -15.899911 9.689371 7.147490 24.163012 -9.226568 -59.635582 9.615699 23.544838 109.563782 2.494204 18.724222 -1.250566 -0.400610 -0.661750 -0.350280 18.397749 -7.590368 3.014596 9.912024 10.909622 -23.378728 9.200863 -11.744868 46.588426 -1.161108 -7.091061 1.816156 -0.415290 0.736740 0.404400 -3.041456 -2.156623 -10.162175 -7.679361 5.160298 55.415862 3.237183 6.668423 -0.902634 -5.089781 -6.928982 -11.617681 -22.923570 12.685800 60.341856 1.295320 0.979300 -11.055490 -2.721996 -0.002978 5.571816 -39.884561 8.110677 -9.905324 -49.219838 -39.916898 12.912429 -3.800308 2.845444 0.962930 0.125670 0.169200 -0.000020 13.007458 9.038308 4.430848 58.373899 2.184738 -19.734627 21.991192 49.631386 5.407738 2.058161 -0.764772 -0.460940 0.601190 0.707830 0.035830 
